<?xml version="1.0" encoding="UTF-8" standalone="no"?><!DOCTYPE svg PUBLIC "-//W3C//DTD SVG 1.1//EN" "http://www.w3.org/Graphics/SVG/1.1/DTD/svg11.dtd"><svg width="100%" height="100%" viewBox="0 0 4555 1500" version="1.1" xmlns="http://www.w3.org/2000/svg" xmlns:xlink="http://www.w3.org/1999/xlink" xml:space="preserve" xmlns:serif="http://www.serif.com/" style="fill-rule:evenodd;clip-rule:evenodd;stroke-linejoin:round;stroke-miterlimit:2;"><g><path d="M90.045,1077.33c-6.931,-34.114 -10.569,-69.418 -10.569,-105.565l0,-443.546c0,-291.532 236.687,-528.218 528.218,-528.218l529.237,0c147.281,0 280.564,60.408 376.404,157.778l-76.295,229.767l-195.74,592.813l-223.932,-682.091l-234.228,0l320.454,903.449l275.41,0l275.851,-777.7c6.752,33.691 10.295,68.536 10.295,104.202l0,443.546c0,291.532 -236.687,528.218 -528.218,528.218l-529.237,0c-148.862,0 -283.424,-61.712 -379.477,-160.926l76.175,-222.543l25.194,-74.381l337.185,0l54.053,159.584l232.941,0l-326.889,-903.449l-254.819,0l-281.965,779.288l-0.046,-0.226Zm520.099,-205.077l-222.645,0l110.679,-330.75l111.966,330.75Z" style="fill:url(#_Linear1);"/><path d="M0,900.438l18.266,-55.007" style="fill:none;"/><g><g><path d="M2343.672,533.304l-179.053,0l0,775.258l-154.636,0l0,-775.258l-174.169,0l0,-103.285l507.859,0l0,103.285Z" style="fill:url(#_Linear2);fill-rule:nonzero;"/><path d="M2906.874,1111.948c0,42.309 -6.511,76.738 -19.533,103.285c-32.555,68.027 -110.145,102.04 -232.769,102.04c-37.981,0 -69.993,-3.733 -96.037,-11.2c-62.94,-18.251 -104.176,-53.924 -123.709,-107.018c-7.596,-19.91 -11.394,-50.605 -11.394,-92.085l0,-438.027c0,-34.843 1.085,-61.39 3.256,-79.641c2.17,-18.251 10.038,-39.821 23.602,-64.709c13.565,-24.888 34.454,-45.628 62.668,-62.22c44.492,-25.718 97.123,-38.576 157.892,-38.576c61.855,0 111.772,11.614 149.753,34.843c22.789,14.103 40.151,29.865 52.088,47.287c15.192,19.91 24.688,42.517 28.486,67.82c3.798,25.303 5.697,65.331 5.697,120.084l0,418.117Zm-151.381,18.044l0,-471.004c0,-58.072 -5.968,-94.159 -17.905,-108.262c-15.192,-17.422 -38.523,-26.132 -69.993,-26.132c-21.703,0 -40.151,4.148 -55.344,12.444c-17.363,8.296 -27.943,19.91 -31.741,34.843c-3.798,14.933 -5.697,39.406 -5.697,73.419l0,484.07c0,29.036 5.697,51.642 17.091,67.82c11.394,16.177 34.997,24.266 70.807,24.266c15.192,0 28.757,-1.452 40.694,-4.355c11.937,-2.904 20.889,-8.296 26.858,-16.177c5.968,-7.881 10.852,-14.103 14.65,-18.666c3.798,-4.563 6.511,-13.688 8.139,-27.377c1.628,-13.688 2.442,-21.984 2.442,-24.888Z" style="fill:url(#_Linear3);fill-rule:nonzero;"/><path d="M3517.281,1111.948c0,42.309 -6.511,76.738 -19.533,103.285c-32.555,68.027 -110.145,102.04 -232.769,102.04c-37.981,0 -69.993,-3.733 -96.037,-11.2c-62.94,-18.251 -104.176,-53.924 -123.709,-107.018c-7.596,-19.91 -11.394,-50.605 -11.394,-92.085l0,-438.027c0,-34.843 1.085,-61.39 3.256,-79.641c2.17,-18.251 10.038,-39.821 23.602,-64.709c13.565,-24.888 34.454,-45.628 62.668,-62.22c44.492,-25.718 97.123,-38.576 157.892,-38.576c61.855,0 111.772,11.614 149.753,34.843c22.789,14.103 40.151,29.865 52.088,47.287c15.192,19.91 24.688,42.517 28.486,67.82c3.798,25.303 5.697,65.331 5.697,120.084l0,418.117Zm-151.381,18.044l0,-471.004c0,-58.072 -5.968,-94.159 -17.905,-108.262c-15.192,-17.422 -38.523,-26.132 -69.993,-26.132c-21.703,0 -40.151,4.148 -55.344,12.444c-17.363,8.296 -27.943,19.91 -31.741,34.843c-3.798,14.933 -5.697,39.406 -5.697,73.419l0,484.07c0,29.036 5.697,51.642 17.091,67.82c11.394,16.177 34.997,24.266 70.807,24.266c15.192,0 28.757,-1.452 40.694,-4.355c11.937,-2.904 20.889,-8.296 26.858,-16.177c5.968,-7.881 10.852,-14.103 14.65,-18.666c3.798,-4.563 6.511,-13.688 8.139,-27.377c1.628,-13.688 2.442,-21.984 2.442,-24.888Z" style="fill:url(#_Linear4);fill-rule:nonzero;"/><path d="M4052.811,1308.563l-402.055,0l0,-878.543l151.381,0l0,770.281l250.674,0l0,108.262Z" style="fill:url(#_Linear5);fill-rule:nonzero;"/><path d="M4554.159,1115.681c0,100.381 -42.322,165.505 -126.965,195.37c-28.214,9.126 -61.855,13.688 -100.921,13.688c-73.791,0 -129.678,-17.422 -167.658,-52.265c-33.64,-29.036 -50.46,-75.493 -50.46,-139.372l0,-145.594l139.987,0l0,160.527c0,38.161 10.852,62.635 32.555,73.419c13.022,7.466 28.214,11.2 45.577,11.2c17.363,0 31.47,-3.111 42.322,-9.333c10.852,-6.222 18.448,-15.762 22.789,-28.621c4.341,-12.859 6.511,-23.229 6.511,-31.11l0,-34.221c0,-53.924 -18.338,-104.944 -55.013,-153.061c-15.108,-20.74 -38.574,-49.154 -70.4,-85.241c-31.826,-36.087 -54.216,-62.427 -67.17,-79.019c-58.26,-71.345 -87.39,-140.202 -87.39,-206.57c0,-82.13 34.183,-138.543 102.548,-169.238c34.725,-15.762 78.132,-23.644 130.22,-23.644c97.665,-0 158.435,28.206 182.308,84.619c7.596,19.081 11.394,41.065 11.394,65.953l0,155.549l-138.359,0l0,-155.549l-1.628,-7.466c0,-4.978 -0.271,-9.126 -0.814,-12.444c-0.543,-3.318 -2.17,-7.674 -4.883,-13.066c-2.713,-5.392 -5.968,-9.955 -9.767,-13.688c-3.798,-3.733 -9.495,-6.844 -17.091,-9.333c-7.596,-2.489 -16.278,-3.733 -26.044,-3.733c-22.789,0 -40.151,5.185 -52.088,15.555c-11.937,10.37 -18.719,20.74 -20.347,31.11c-1.628,10.37 -2.442,24.681 -2.442,42.932c0,34.013 5.697,63.464 17.091,88.352c11.394,24.888 31.199,53.924 59.413,87.108c4.341,5.807 26.587,31.525 66.738,77.153c16.278,17.422 33.098,36.502 50.46,57.242c59.684,71.345 89.526,142.276 89.526,212.792Z" style="fill:url(#_Linear6);fill-rule:nonzero;"/></g></g><path d="M1653.209,4.081l2900.95,0l0,213.571l-2766.186,0c-31.518,-79.572 -77.527,-151.85 -134.764,-213.571Z" style="fill:url(#_Linear7);"/></g><defs><linearGradient id="_Linear1" x1="0" y1="0" x2="1" y2="0" gradientUnits="userSpaceOnUse" gradientTransform="matrix(792.83708,0,0,749.991701,872.312488,749.991701)"><stop offset="0" style="stop-color:#4683ff;stop-opacity:1"/><stop offset="1" style="stop-color:#004ee5;stop-opacity:1"/></linearGradient><linearGradient id="_Linear2" x1="0" y1="0" x2="1" y2="0" gradientUnits="userSpaceOnUse" gradientTransform="matrix(2718.346087,0,0,912.141693,1835.813026,868.668986)"><stop offset="0" style="stop-color:#4683ff;stop-opacity:1"/><stop offset="1" style="stop-color:#1a61ee;stop-opacity:1"/></linearGradient><linearGradient id="_Linear3" x1="0" y1="0" x2="1" y2="0" gradientUnits="userSpaceOnUse" gradientTransform="matrix(2718.346087,0,0,912.141693,1835.813026,868.668986)"><stop offset="0" style="stop-color:#4683ff;stop-opacity:1"/><stop offset="1" style="stop-color:#1a61ee;stop-opacity:1"/></linearGradient><linearGradient id="_Linear4" x1="0" y1="0" x2="1" y2="0" gradientUnits="userSpaceOnUse" gradientTransform="matrix(2718.346087,0,0,912.141693,1835.813026,868.668986)"><stop offset="0" style="stop-color:#4683ff;stop-opacity:1"/><stop offset="1" style="stop-color:#1a61ee;stop-opacity:1"/></linearGradient><linearGradient id="_Linear5" x1="0" y1="0" x2="1" y2="0" gradientUnits="userSpaceOnUse" gradientTransform="matrix(2718.346087,0,0,912.141693,1835.813026,868.668986)"><stop offset="0" style="stop-color:#4683ff;stop-opacity:1"/><stop offset="1" style="stop-color:#1a61ee;stop-opacity:1"/></linearGradient><linearGradient id="_Linear6" x1="0" y1="0" x2="1" y2="0" gradientUnits="userSpaceOnUse" gradientTransform="matrix(2718.346087,0,0,912.141693,1835.813026,868.668986)"><stop offset="0" style="stop-color:#4683ff;stop-opacity:1"/><stop offset="1" style="stop-color:#1a61ee;stop-opacity:1"/></linearGradient><linearGradient id="_Linear7" x1="0" y1="0" x2="1" y2="0" gradientUnits="userSpaceOnUse" gradientTransform="matrix(3493.91095,0,0,213.57068,1060.248163,110.866)"><stop offset="0" style="stop-color:#4683ff;stop-opacity:1"/><stop offset="0.58" style="stop-color:#3e7dfc;stop-opacity:1"/><stop offset="0.8" style="stop-color:#2c6ff5;stop-opacity:1"/><stop offset="1" style="stop-color:#1a61ee;stop-opacity:1"/></linearGradient></defs></svg>