<?xml version="1.0" encoding="UTF-8" standalone="no"?>
<!DOCTYPE svg PUBLIC "-//W3C//DTD SVG 1.1//EN" "http://www.w3.org/Graphics/SVG/1.1/DTD/svg11.dtd">
<svg width="100%" height="100%" viewBox="0 0 512 512" version="1.1" xmlns="http://www.w3.org/2000/svg" xmlns:xlink="http://www.w3.org/1999/xlink" xml:space="preserve" xmlns:serif="http://www.serif.com/" style="fill-rule:evenodd;clip-rule:evenodd;stroke-linejoin:round;stroke-miterlimit:2;">
    <g transform="matrix(0.247177,0,0,0.247177,256,256)">
        <g transform="matrix(1,0,0,1,-1164.5,-1000)">
            <g transform="matrix(1.333333,0,0,1.333333,0,0)">
                <path d="M90.045,1077.33C83.114,1043.216 79.476,1007.912 79.476,971.765L79.476,528.219C79.476,236.687 316.163,0.001 607.694,0.001L1136.931,0.001C1284.212,0.001 1417.495,60.409 1513.335,157.779L1437.04,387.546L1241.3,980.359L1017.368,298.268L783.14,298.268L1103.594,1201.717L1379.004,1201.717L1654.855,424.017C1661.607,457.708 1665.15,492.553 1665.15,528.219L1665.15,971.765C1665.15,1263.297 1428.463,1499.983 1136.932,1499.983L607.695,1499.983C458.833,1499.983 324.271,1438.271 228.218,1339.057L304.393,1116.514L329.587,1042.133L666.772,1042.133L720.825,1201.717L953.766,1201.717L626.877,298.268L372.058,298.268L90.093,1077.556L90.047,1077.33L90.045,1077.33ZM610.144,872.253L387.499,872.253L498.178,541.503L610.144,872.253Z" style="fill:url(#_Linear1);"/>
            </g>
        </g>
    </g>
    <defs>
        <linearGradient id="_Linear1" x1="0" y1="0" x2="1" y2="0" gradientUnits="userSpaceOnUse" gradientTransform="matrix(792.83708,0,0,792.83708,872.312488,749.991701)"><stop offset="0" style="stop-color:rgb(70,131,255);stop-opacity:1"/><stop offset="1" style="stop-color:rgb(0,78,229);stop-opacity:1"/></linearGradient>
    </defs>
</svg>
