<svg xmlns="http://www.w3.org/2000/svg" width="116" height="110" viewBox="0 0 116 110"><g transform="translate(-443 -62)"><g transform="translate(443 62)"><g fill="none" stroke="#4683ff" stroke-width="10"><rect width="116" height="110" stroke="none"/><rect x="5" y="5" width="106" height="100" fill="none"/></g></g></g><path d="M60.589,11.1V7.8a3.309,3.309,0,0,0-3.3-3.3h-6.6a3.309,3.309,0,0,0-3.3,3.3v3.3h-3.3V24.3a3.309,3.309,0,0,0,3.3,3.3h3.3v23.1a6.6,6.6,0,1,1-13.2,0V17.7a13.2,13.2,0,1,0-26.4,0v23.1H7.8a3.309,3.309,0,0,0-3.3,3.3v13.2H7.8v3.3a3.309,3.309,0,0,0,3.3,3.3h6.6a3.309,3.309,0,0,0,3.3-3.3v-3.3h3.3v-13.2a3.309,3.309,0,0,0-3.3-3.3H17.7V17.7a6.6,6.6,0,1,1,13.2,0V50.691a13.2,13.2,0,1,0,26.4,0V27.6h3.3a3.309,3.309,0,0,0,3.3-3.3V11.1Z" transform="translate(24.306 21.306)" fill="#4683ff"/></svg>