<svg xmlns="http://www.w3.org/2000/svg" width="116" height="110" viewBox="0 0 116 110"><g transform="translate(-443 -62)"><g transform="translate(443 62)"><g fill="none" stroke="#4683ff" stroke-width="10"><rect width="116" height="110" stroke="none"/><rect x="5" y="5" width="106" height="100" fill="none"/></g></g></g><g transform="translate(26.538 27.404)"><path d="M58.991,43.827a3.933,3.933,0,0,1-3.933,3.933H7.865a3.933,3.933,0,0,1-3.933-3.933v-23.6A3.933,3.933,0,0,1,7.865,16.3h4.609a11.8,11.8,0,0,0,8.337-3.457l3.264-3.256a3.933,3.933,0,0,1,2.773-1.152h9.218a3.932,3.932,0,0,1,2.78,1.152L42.1,12.841A11.8,11.8,0,0,0,50.449,16.3h4.609a3.933,3.933,0,0,1,3.933,3.933ZM7.865,12.365A7.865,7.865,0,0,0,0,20.231v23.6a7.865,7.865,0,0,0,7.865,7.865H55.058a7.865,7.865,0,0,0,7.865-7.865v-23.6a7.865,7.865,0,0,0-7.865-7.865H50.449a7.864,7.864,0,0,1-5.56-2.3L41.632,6.8a7.865,7.865,0,0,0-5.561-2.3H26.853a7.864,7.864,0,0,0-5.56,2.3l-3.257,3.257a7.865,7.865,0,0,1-5.561,2.3Z" transform="translate(0)" fill="#4683ff" stroke="#4683ff" stroke-width="2.25"/><path d="M28.1,34.846a9.832,9.832,0,1,1,9.832-9.832A9.832,9.832,0,0,1,28.1,34.846Zm0,3.933A13.765,13.765,0,1,0,14.332,25.015,13.765,13.765,0,0,0,28.1,38.779ZM8.433,17.149a1.966,1.966,0,1,1-1.966-1.966A1.966,1.966,0,0,1,8.433,17.149Z" transform="translate(3.365 5.048)" fill="#4683ff" stroke="#4683ff" stroke-width="2.25"/></g></svg>