<svg xmlns="http://www.w3.org/2000/svg" width="116" height="110" viewBox="0 0 116 110"><g transform="translate(-443 -62)"><g transform="translate(443 62)"><g fill="none" stroke="#4683ff" stroke-width="10"><rect width="116" height="110" stroke="none"/><rect x="5" y="5" width="106" height="100" fill="none"/></g></g></g><g transform="translate(27.692 25.923)"><path d="M3,20.885C3,13.162,3,9.3,5.4,6.9s6.262-2.4,13.984-2.4H41.231c7.723,0,11.587,0,13.984,2.4s2.4,6.262,2.4,13.984v2.731c0,7.723,0,11.587-2.4,13.984S48.954,40,41.231,40H19.385C11.662,40,7.8,40,5.4,37.6S3,31.338,3,23.615Z" transform="translate(0)" fill="none" stroke="#4683ff" stroke-width="7"/><path d="M25.385,31.577V24.75m0,6.827,16.385,5.462M25.385,31.577,9,37.039" transform="translate(4.923 16.616)" fill="none" stroke="#4683ff" stroke-linecap="round" stroke-width="7"/></g></svg>