<svg xmlns="http://www.w3.org/2000/svg" width="116" height="110" viewBox="0 0 116 110"><path d="M26.354,30.667a8.289,8.289,0,1,0,8.289-8.289,8.289,8.289,0,0,0-8.289,8.289Zm40.425-1.909C59.763,13.977,49.157,6.539,34.94,6.539S10.116,13.977,3.1,28.765a4.463,4.463,0,0,0,0,3.812c7.016,14.78,17.622,22.218,31.84,22.218s24.823-7.438,31.84-22.225A4.463,4.463,0,0,0,66.779,28.757ZM34.644,43.693A13.026,13.026,0,1,1,47.67,30.667,13.026,13.026,0,0,1,34.644,43.693Z" transform="translate(23.06 24.333)" fill="#4683ff" stroke="#4683ff" stroke-width="0.035"/><g fill="none" stroke="#4683ff" stroke-width="10"><rect width="116" height="110" stroke="none"/><rect x="5" y="5" width="106" height="100" fill="none"/></g></svg>