<svg xmlns="http://www.w3.org/2000/svg" width="116" height="110" viewBox="0 0 116 110"><g transform="translate(-443 -62)"><g transform="translate(443 62)"><g fill="none" stroke="#4683ff" stroke-width="10"><rect width="116" height="110" stroke="none"/><rect x="5" y="5" width="106" height="100" fill="none"/></g></g></g><g transform="translate(21.168 19.128)"><path d="M17.683,11.977a7.064,7.064,0,1,0,2.492,0v5.291a1.246,1.246,0,0,1-2.492,0ZM9.375,18.929a9.554,9.554,0,1,1,9.554,9.554A9.554,9.554,0,0,1,9.375,18.929Z" transform="translate(-3.144 -3.144)" fill="#4683ff" stroke="#4683ff" stroke-width="1.7"/><path d="M21.2,5.412A1.662,1.662,0,1,1,19.535,3.75,1.662,1.662,0,0,1,21.2,5.412ZM33.659,21.2a1.662,1.662,0,1,1,1.662-1.662A1.662,1.662,0,0,1,33.659,21.2Zm-28.247,0a1.662,1.662,0,1,1,1.662-1.662A1.662,1.662,0,0,1,5.412,21.2ZM10.724,8.373a1.663,1.663,0,1,1-2.351,0,1.663,1.663,0,0,1,2.351,0ZM30.7,28.347a1.663,1.663,0,1,1-2.351,0A1.663,1.663,0,0,1,30.7,28.347Zm0-17.623a1.663,1.663,0,1,1,0-2.351,1.663,1.663,0,0,1,0,2.351ZM10.724,30.7a1.663,1.663,0,1,1,0-2.351,1.663,1.663,0,0,1,0,2.351Z" transform="translate(-3.75 -3.75)" fill="#4683ff" stroke="#4683ff" stroke-width="1.7"/></g><g transform="translate(63.262 19.128)"><path d="M8.308,2.6a7.064,7.064,0,1,0,2.492,0V7.893a1.246,1.246,0,0,1-2.492,0ZM0,9.554a9.554,9.554,0,1,1,9.554,9.554A9.554,9.554,0,0,1,0,9.554Z" transform="translate(19.282 2.734) rotate(60)" fill="#4683ff" stroke="#4683ff" stroke-width="1.7"/><path d="M21.2,5.412A1.662,1.662,0,1,1,19.535,3.75,1.662,1.662,0,0,1,21.2,5.412ZM33.659,21.2a1.662,1.662,0,1,1,1.662-1.662A1.662,1.662,0,0,1,33.659,21.2Zm-28.247,0a1.662,1.662,0,1,1,1.662-1.662A1.662,1.662,0,0,1,5.412,21.2ZM10.724,8.373a1.663,1.663,0,1,1-2.351,0,1.663,1.663,0,0,1,2.351,0ZM30.7,28.347a1.663,1.663,0,1,1-2.351,0A1.663,1.663,0,0,1,30.7,28.347Zm0-17.623a1.663,1.663,0,1,1,0-2.351,1.663,1.663,0,0,1,0,2.351ZM10.724,30.7a1.663,1.663,0,1,1,0-2.351,1.663,1.663,0,0,1,0,2.351Z" transform="translate(-3.75 -3.75)" fill="#4683ff" stroke="#4683ff" stroke-width="1.7"/></g><g transform="translate(21.168 63.437)"><path d="M8.308,2.6a7.064,7.064,0,1,0,2.492,0V7.893a1.246,1.246,0,0,1-2.492,0ZM0,9.554a9.554,9.554,0,1,1,9.554,9.554A9.554,9.554,0,0,1,0,9.554Z" transform="translate(6.231 25.34) rotate(-90)" fill="#4683ff" stroke="#4683ff" stroke-width="1.7"/><path d="M21.2,5.412A1.662,1.662,0,1,1,19.535,3.75,1.662,1.662,0,0,1,21.2,5.412ZM33.659,21.2a1.662,1.662,0,1,1,1.662-1.662A1.662,1.662,0,0,1,33.659,21.2Zm-28.247,0a1.662,1.662,0,1,1,1.662-1.662A1.662,1.662,0,0,1,5.412,21.2ZM10.724,8.373a1.663,1.663,0,1,1-2.351,0,1.663,1.663,0,0,1,2.351,0ZM30.7,28.347a1.663,1.663,0,1,1-2.351,0A1.663,1.663,0,0,1,30.7,28.347Zm0-17.623a1.663,1.663,0,1,1,0-2.351,1.663,1.663,0,0,1,0,2.351ZM10.724,30.7a1.663,1.663,0,1,1,0-2.351,1.663,1.663,0,0,1,0,2.351Z" transform="translate(-3.75 -3.75)" fill="#4683ff" stroke="#4683ff" stroke-width="1.7"/></g><g transform="translate(63.262 63.437)"><path d="M8.308,2.6a7.064,7.064,0,1,0,2.492,0V7.893a1.246,1.246,0,0,1-2.492,0ZM0,9.554a9.554,9.554,0,1,1,9.554,9.554A9.554,9.554,0,0,1,0,9.554Z" transform="translate(6.231 6.231)" fill="#4683ff" stroke="#4683ff" stroke-width="1.7"/><path d="M21.2,5.412A1.662,1.662,0,1,1,19.535,3.75,1.662,1.662,0,0,1,21.2,5.412ZM33.659,21.2a1.662,1.662,0,1,1,1.662-1.662A1.662,1.662,0,0,1,33.659,21.2Zm-28.247,0a1.662,1.662,0,1,1,1.662-1.662A1.662,1.662,0,0,1,5.412,21.2ZM10.724,8.373a1.663,1.663,0,1,1-2.351,0,1.663,1.663,0,0,1,2.351,0ZM30.7,28.347a1.663,1.663,0,1,1-2.351,0A1.663,1.663,0,0,1,30.7,28.347Zm0-17.623a1.663,1.663,0,1,1,0-2.351,1.663,1.663,0,0,1,0,2.351ZM10.724,30.7a1.663,1.663,0,1,1,0-2.351,1.663,1.663,0,0,1,0,2.351Z" transform="translate(-3.75 -3.75)" fill="#4683ff" stroke="#4683ff" stroke-width="1.7"/></g></svg>