<svg xmlns="http://www.w3.org/2000/svg" width="116" height="110" viewBox="0 0 116 110"><g fill="none" stroke="#4683ff" stroke-width="10"><rect width="116" height="110" stroke="none"/><rect x="5" y="5" width="106" height="100" fill="none"/></g><path d="M5.953,4.5H59.106a2.953,2.953,0,0,1,2.953,2.953V54.7a2.953,2.953,0,0,1-2.953,2.953H5.953A2.953,2.953,0,0,1,3,54.7V7.453A2.953,2.953,0,0,1,5.953,4.5Zm24,26.577H8.906V51.747H56.153V31.077H52.828a11.818,11.818,0,0,1-22.88,0Zm0-5.906a11.818,11.818,0,0,1,22.88,0h3.325V10.406H8.906V25.171Zm11.44,8.859a5.906,5.906,0,1,0-5.906-5.906A5.906,5.906,0,0,0,41.388,34.03ZM14.812,39.935h5.906v5.906H14.812Z" transform="translate(25.47 23.923)" fill="#4683ff" stroke="#4683ff" stroke-width="2"/></svg>