<svg xmlns="http://www.w3.org/2000/svg" width="116" height="110" viewBox="0 0 116 110"><g transform="translate(-443 -62)"><g transform="translate(443 62)"><g fill="none" stroke="#4683ff" stroke-width="10"><rect width="116" height="110" stroke="none"/><rect x="5" y="5" width="106" height="100" fill="none"/></g></g></g><path d="M64.162,36.919A17.492,17.492,0,0,0,38.034,26.584L42.813,7.505a2.332,2.332,0,0,0-1.006-2.531A17.492,17.492,0,1,0,24.131,35.143l-18.912,5.4a2.332,2.332,0,0,0-1.691,2.134,17.494,17.494,0,1,0,34.961.213L52.623,56.571a2.332,2.332,0,0,0,2.7.394A17.492,17.492,0,0,0,64.162,36.919ZM28.886,34.878a4.665,4.665,0,1,1,4.665,4.665A4.665,4.665,0,0,1,28.886,34.878Zm-9.329-15.16A12.828,12.828,0,0,1,37.851,8.109l-4.367,17.44a9.329,9.329,0,0,0-8.14,4.9,12.784,12.784,0,0,1-5.787-10.729Zm7.872,34.859a12.828,12.828,0,0,1-19.2-10.038L25.518,39.6a9.329,9.329,0,0,0,8.032,4.606h.265a12.775,12.775,0,0,1-6.388,10.37Zm30.953-6.705a12.8,12.8,0,0,1-3.79,4.122L41.67,39.49a9.3,9.3,0,0,0-.172-9.5A12.828,12.828,0,0,1,58.381,47.872Z" transform="translate(23.866 23.38)" fill="#4683ff" stroke="#4683ff" stroke-width="3"/></svg>