<svg xmlns="http://www.w3.org/2000/svg" width="116" height="110" viewBox="0 0 116 110"><g transform="translate(-443 -62)"><g transform="translate(443 62)"><g fill="none" stroke="#4683ff" stroke-width="10"><rect width="116" height="110" stroke="none"/><rect x="5" y="5" width="106" height="100" fill="none"/></g></g></g><path d="M39.016,6.9c0-2.87-3.684-4.362-5.951-2.41L19.349,16.3a1.848,1.848,0,0,1-1.2.441H8.906a5.133,5.133,0,0,0-5.314,4.931V38.111a5.133,5.133,0,0,0,5.314,4.931h9.238a1.849,1.849,0,0,1,1.2.437L33.065,55.294c2.267,1.949,5.951.46,5.951-2.41ZM21.758,18.713,35.474,6.9V52.884L21.758,41.07a5.547,5.547,0,0,0-3.613-1.315H8.906a1.711,1.711,0,0,1-1.771-1.644V21.674a1.711,1.711,0,0,1,1.771-1.644h9.238a5.547,5.547,0,0,0,3.614-1.315ZM50.564,12.23a1.869,1.869,0,0,1,2.5.131,24.906,24.906,0,0,1,0,35.063,1.869,1.869,0,0,1-2.5.128,1.562,1.562,0,0,1-.138-2.321,21.793,21.793,0,0,0,0-30.681A1.562,1.562,0,0,1,50.564,12.23ZM46.4,39.534a1.581,1.581,0,0,1-.648-2.245,13.87,13.87,0,0,0,0-14.793,1.543,1.543,0,0,1-.052-1.683,1.839,1.839,0,0,1,3.116.039,16.954,16.954,0,0,1,0,18.08,1.848,1.848,0,0,1-2.419.6Z" transform="translate(26.063 25.108)" fill="#4683ff" stroke="#4683ff" stroke-width="3"/></svg>